<?xml version="1.0" encoding="UTF-8"?>
<svg width="459px" height="487px" viewBox="0 0 459 487" version="1.1" xmlns="http://www.w3.org/2000/svg" xmlns:xlink="http://www.w3.org/1999/xlink">
    <!-- Generator: Sketch 53.2 (72643) - https://sketchapp.com -->
    <title>bomb</title>
    <desc>Created with Sketch.</desc>
    <g id="Page-1" stroke="none" stroke-width="1" fill="none" fill-rule="evenodd">
        <g id="bomb" fill="#FFFFFF" fill-rule="nonzero">
            <path d="M446.985,69.644 L413.257,69.644 C414.902,54.999 416.314,40.332 417.649,25.648 C419.025,10.571 395.545,10.709 394.184,25.648 C393.376,34.491 392.543,43.327 391.655,52.155 C343.811,-25.078 218.167,-16.461 192.459,77.52 C170.292,77.271 148.014,79.262 125.621,83.261 C119.108,84.427 116.656,89.408 117.202,94.425 C117.187,94.463 117.159,94.484 117.143,94.519 C112.839,103.629 110.587,113.198 110.727,123.103 C82.248,131.469 56.165,146.04 38.039,170.046 C21.343,192.163 5.936,226.142 2.244,253.772 C-8.92,337.421 38.604,423.467 111.991,462.715 C197.987,508.706 315.537,488.038 376.228,411.062 C433.315,338.68 423.423,237.662 357.399,175.007 C337.432,156.058 305.238,141.063 279.61,130.935 C280.935,121.32 280.925,111.674 279.802,101.899 C279.716,101.143 279.573,100.406 279.391,99.688 C279.249,95.168 276.766,90.781 271.185,89.118 C253.128,83.73 234.999,80.328 216.792,78.645 C241.602,9.429 341.744,2.2 375.132,69.633 L338.464,69.633 C323.331,69.633 323.331,93.098 338.464,93.098 L386.837,93.098 C385.796,100.431 384.617,107.748 383.328,115.053 C383.165,115.49 382.977,115.911 382.881,116.378 C381.489,123.235 379.869,130.048 378.484,136.913 C377.214,143.172 380.206,149.565 386.674,151.347 C392.519,152.954 399.836,149.423 401.112,143.151 C402.203,137.758 403.417,132.393 404.569,127.016 C404.97,126.142 405.311,125.19 405.508,124.089 C407.387,113.793 408.926,103.457 410.343,93.103 L446.995,93.103 C462.117,93.109 462.117,69.644 446.985,69.644 Z M345.359,195.925 C377.742,226.657 393.158,269.736 390.518,313.848 C384.287,417.779 279.34,470.666 185.936,461.21 C96.77,452.193 31.394,374.978 24.8,287.977 C19.674,220.356 61.354,154.122 130.94,142.988 C204.423,131.229 289.776,143.19 345.359,195.925 Z M256.892,109.635 C257.14,114.165 257.211,118.681 256.846,123.18 C234.581,116.82 211.464,113.679 188.252,113.42 C170.792,113.222 152.409,114.398 134.365,117.579 C134.766,113.747 135.693,109.982 137.402,106.365 C137.62,105.9 137.773,105.423 137.943,104.95 C178.086,98.481 217.578,99.24 256.892,109.635 Z" id="Shape"></path>
            <path d="M226.954,225.591 C227.421,225.878 227.863,226.185 228.414,226.429 C284.063,251.369 294.945,309.563 265.265,359.967 C260.893,367.396 265.565,374.394 271.811,376.679 C284.632,386.363 298.795,391.836 314.994,393.75 C318.696,394.188 322.022,392.09 324.19,389.135 C325.053,388.399 325.881,387.556 326.592,386.469 C376.61,310.35 341.978,209.55 260.786,172.427 C259.582,171.876 258.394,171.597 257.231,171.434 C255.474,170.157 253.23,169.36 250.467,169.36 C247.912,169.36 245.825,170.068 244.14,171.18 C242.444,171.701 240.779,172.683 239.24,174.265 C228.035,185.771 221.739,198.941 219.67,214.823 C219.05,219.576 222.673,223.765 226.954,225.591 Z M252.605,194.485 C318.187,226.806 347.436,305.134 309.646,369.264 C303.024,367.826 296.631,365.283 290.893,361.702 C318.75,304.58 304.37,238.038 244.632,208.398 C246.324,203.283 249.147,198.662 252.605,194.485 Z" id="Shape"></path>
        </g>
    </g>
</svg>