<?xml version="1.0" encoding="UTF-8"?>
<svg width="100px" height="100px" viewBox="0 0 100 100" version="1.1" xmlns="http://www.w3.org/2000/svg" xmlns:xlink="http://www.w3.org/1999/xlink">
    <!-- Generator: Sketch 53.2 (72643) - https://sketchapp.com -->
    <title>Artboard</title>
    <desc>Created with Sketch.</desc>
    <g id="Artboard" stroke="none" stroke-width="1" fill="none" fill-rule="evenodd">
        <g id="magic" transform="translate(1.000000, 3.000000)" fill="#007489" fill-rule="nonzero">
            <path d="M29.0329981,16.1363866 C28.8870812,16.001525 28.735336,15.8984447 28.5817175,15.8114642 C27.8273627,14.9826403 26.4839285,14.6133912 25.3973579,15.5593043 C22.4996281,18.0836211 19.8866547,20.820162 17.5823757,23.902325 C17.5490708,23.9468607 17.530545,23.9916055 17.5016114,24.0371866 C16.8594523,24.8028661 16.7272737,25.8940952 17.743696,26.7064013 C39.2960947,43.9320982 64.8941996,69.4951702 83.4235591,89.9571282 C83.4712266,90.0154637 83.5091105,90.0758895 83.5651049,90.1312983 L87.3926642,93.9747498 C87.5373322,94.12132 87.6886609,94.2317187 87.8439446,94.325181 C88.6103726,95.0810332 89.8565985,95.3444834 90.8363852,94.3603078 L96.7683947,88.4027695 C96.9288825,88.2394719 97.0462816,88.0694834 97.1436985,87.8963587 C98.0389748,87.1520061 98.4236458,85.7929356 97.342279,84.7504237 C75.9915828,64.1908224 50.8043762,36.2447767 29.0329981,16.1363866 Z M40.7009348,40.656738 C34.6960709,35.1966197 28.5654813,29.9060716 22.3052111,24.8484472 C23.7058879,23.1402001 25.2520655,21.555942 26.8767175,20.0590825 C32.6240932,25.3985571 38.2247194,30.8956841 43.7535321,36.4687098 C42.9263229,38.0569405 41.9201003,39.4224929 40.7009348,40.656738 Z" id="Shape"></path>
            <path d="M7.89055,28.0180206 L1.64282082,28.8357237 C-0.836868311,29.1606362 -0.370239116,33.3067846 2.10945001,32.9818721 L8.35717918,32.1645706 C10.8368683,31.8398589 10.3702391,27.6941121 7.89055,28.0180206 Z" id="Path"></path>
            <path d="M13.1426011,14.1553216 C10.9857518,12.6006065 8.92211768,10.9046243 6.76490499,9.3493254 C4.73724864,7.88742615 2.84768878,11.3955563 4.85771967,12.8440293 C7.01456893,14.3993283 9.07820305,16.0949213 11.2354157,17.6500256 C13.2630721,19.1134815 15.1519052,15.6053514 13.1426011,14.1553216 Z" id="Path"></path>
            <path d="M17.993077,0.252887606 C16.929567,0.836628313 16.7897422,1.94948962 17.2458756,2.92364213 C18.0728052,4.69307096 19.0886384,6.37165397 20.1104815,8.0476092 C21.4424229,10.2326014 25.0426114,8.26684046 23.708266,6.07696815 C22.6864231,4.40082521 21.6707901,2.7224299 20.8438606,0.953001065 C20.3875269,-0.0211514409 18.8867138,-0.237004115 17.993077,0.252887606 Z" id="Path"></path>
            <path d="M32.290329,6.46388853 L31.0788478,10.5810777 C30.3435676,13.0811355 34.9739755,14.0350646 35.7097142,11.5361581 L36.9211954,7.41820133 C37.6562464,4.9194868 33.0260677,3.96459828 32.290329,6.46388853 Z" id="Path"></path>
        </g>
    </g>
</svg>