<?xml version="1.0" encoding="UTF-8"?>
<svg width="150px" height="150px" viewBox="0 0 150 150" version="1.1" xmlns="http://www.w3.org/2000/svg" xmlns:xlink="http://www.w3.org/1999/xlink">
    <!-- Generator: Sketch 53.2 (72643) - https://sketchapp.com -->
    <title>Artboard</title>
    <desc>Created with Sketch.</desc>
    <g id="Artboard" stroke="none" stroke-width="1" fill="none" fill-rule="evenodd">
        <g id="magic" transform="translate(3.000000, 5.000000)" fill="#425A70" fill-rule="nonzero">
            <path d="M41.9752195,24.6761703 C41.7572449,24.4772494 41.5305638,24.325206 41.3010842,24.1969097 C40.1742085,22.9743944 38.16735,22.4297521 36.5442013,23.8249739 C32.2154938,27.5483412 28.3121632,31.584739 24.8699686,36.1309294 C24.8202169,36.1966196 24.7925425,36.2626181 24.7493208,36.3298503 C23.7900461,37.4592275 23.5925941,39.0687905 25.1109533,40.2669419 C57.3065119,65.6748448 95.5456564,103.380376 123.225317,133.561764 C123.296524,133.647809 123.353116,133.736937 123.436762,133.818665 L129.154474,139.487756 C129.370583,139.703947 129.596642,139.866785 129.828609,140.004642 C130.97352,141.119524 132.835166,141.508113 134.298798,140.056454 L143.160195,131.269085 C143.399936,131.028221 143.57531,130.777488 143.720834,130.522129 C145.058222,129.424209 145.632854,127.41958 144.017479,125.881875 C112.123229,95.5564631 74.4978955,54.3360457 41.9752195,24.6761703 Z M59.4051002,60.8436886 C50.4348715,52.7900141 41.2768302,44.9864556 31.9250684,37.5264597 C34.0174376,35.0067951 36.3271596,32.6700144 38.7541089,30.4621467 C47.3396949,38.3378718 55.7060624,46.446134 63.965153,54.6663469 C62.7294455,57.0089873 61.2263228,59.023177 59.4051002,60.8436886 Z" id="Shape"></path>
            <path d="M12.62488,41.0288329 L2.62851331,42.3371579 C-1.3389893,42.8570179 -0.592382588,49.4908553 3.37512002,48.9709953 L13.3714867,47.6633129 C17.3389893,47.1437742 16.5923826,40.5105794 12.62488,41.0288329 Z" id="Path"></path>
            <path d="M20.6281618,22.0193892 C17.1772029,19.6009434 13.8753883,16.9627489 10.423848,14.5433951 C7.17959783,12.2693296 4.15630205,17.7264209 7.37235147,19.9796012 C10.8233103,22.3989551 14.1251249,25.0365442 17.5766652,27.4555953 C20.8209154,29.7320823 23.8430483,24.274991 20.6281618,22.0193892 Z" id="Path"></path>
            <path d="M26.5605495,0.39338072 C24.8893196,1.30142182 24.6695949,3.03253941 25.3863759,4.54788775 C26.6858367,7.3003326 28.2821461,9.91146173 29.8878994,12.5185032 C31.9809503,15.9173799 37.6383894,12.8595296 35.5415609,9.45306156 C33.9358077,6.8457281 32.339813,4.23489095 31.0403523,1.4824461 C30.3232565,-0.0329022415 27.964836,-0.368673068 26.5605495,0.39338072 Z" id="Path"></path>
            <path d="M47.9354935,10.1958328 L46.1182717,16.3716166 C45.0153514,20.1217033 51.9609632,21.5525969 53.0645713,17.8042372 L54.8817931,11.627302 C55.9843695,7.87923021 49.0391016,6.44689742 47.9354935,10.1958328 Z" id="Path"></path>
        </g>
    </g>
</svg>