<?xml version="1.0" encoding="UTF-8"?>
<svg width="100px" height="100px" viewBox="0 0 100 100" version="1.1" xmlns="http://www.w3.org/2000/svg" xmlns:xlink="http://www.w3.org/1999/xlink">
    <!-- Generator: Sketch 53.2 (72643) - https://sketchapp.com -->
    <title>Artboard</title>
    <desc>Created with Sketch.</desc>
    <g id="Artboard" stroke="none" stroke-width="1" fill="none" fill-rule="evenodd">
        <g id="share" transform="translate(7.000000, 2.000000)" fill="#007489" fill-rule="nonzero">
            <path d="M71.7248967,72.2320082 C68.3469173,72.2320082 65.2514386,73.193261 62.9182398,74.9515159 C60.0952012,73.1011777 57.2851831,71.2328963 54.475362,69.3644177 C45.9863216,63.7191506 37.2128072,57.8867596 28.1988116,52.6991479 C28.5694958,51.0219338 28.4913739,49.246524 27.9648407,47.4046644 C27.7835429,46.765998 27.5466128,46.1336414 27.257996,45.5142986 C37.2216846,40.035846 46.4157942,33.1414431 55.3135934,26.4680793 C57.6817104,24.692275 60.0500246,22.915485 62.4331349,21.1633425 C65.0847392,23.4685751 68.7363425,24.7762737 72.5921278,24.7762737 L72.7915753,24.7752879 C77.5700265,24.7186971 82.2462883,22.5514904 84.7045611,19.2538501 C86.6481372,16.6485092 87.1721059,13.5090073 86.2204398,10.1766632 C84.2119598,3.14758628 77.3277697,-7.10542736e-15 71.3952464,-7.10542736e-15 C67.1415526,-7.10542736e-15 63.3410051,1.53603314 60.9638133,4.21295047 C58.8200007,6.62840697 57.9214025,9.85723146 58.3642899,13.5494292 C58.3711946,13.6099635 58.3792831,13.6704978 58.3893442,13.7302434 C55.8456504,15.5951729 53.3222762,17.4900739 50.7987046,19.3833974 C41.4341474,26.4120801 31.7557218,33.6761956 21.2195344,39.2222808 C18.8166967,37.9346947 15.9691958,37.2311561 13.1337287,37.2311561 C8.88259969,37.2311561 5.08343301,38.7662034 2.70880586,41.4411489 C0.565585012,43.8546335 -0.333013199,47.0832608 0.110268948,50.7748671 C0.994268639,58.14546 7.93921954,62.002106 14.3414606,62.002106 L14.5383433,62.0011201 C17.5746386,61.9650361 20.668736,61.0558385 23.1325325,59.4918058 C32.3842474,64.7655854 41.3962699,70.7592696 50.1167169,76.5587314 C52.9687552,78.4559986 55.8217799,80.3524765 58.6868383,82.2288426 C58.5365131,83.3553327 58.5347375,84.5437371 58.6826956,85.7735498 C59.5663006,93.14296 66.5116462,97 72.9138873,97 L73.1091918,97 C77.8886297,96.9418317 82.563905,94.7752167 85.0233614,91.4767877 C86.9657537,88.8714469 87.4897224,85.7313529 86.5370697,82.4013752 C84.5293787,75.3780165 77.651305,72.2320082 71.7248967,72.2320082 Z M67.8190033,81.7242586 C68.7026082,80.5827829 70.0227877,79.9009344 71.3500696,79.9009344 C71.5374835,79.9009344 71.7278558,79.91592 71.9170446,79.9439192 L72.033241,79.9620602 L72.1506211,79.952004 C74.7290356,79.7477251 76.8497673,82.1468157 78.1462738,84.1434617 C78.9075665,85.3147116 78.5879773,85.949632 78.4838153,86.1580513 C77.7734193,87.5676916 74.8625924,88.4759032 73.0342262,88.5890845 C72.8769961,88.6001267 72.7177934,88.6050565 72.5593794,88.6050565 C70.4418047,88.6050565 67.7227319,87.66569 67.035615,85.0203218 C66.7521274,83.9330707 67.0385738,82.7334267 67.8190033,81.7242586 Z M9.24697091,46.7249846 C10.1305761,45.5839032 11.4507559,44.9020543 12.778235,44.9020543 C12.9654512,44.9020543 13.1554293,44.9166457 13.3452101,44.9452369 L13.4614064,44.9627858 L13.5781946,44.9533212 C16.1562147,44.7555496 18.276354,47.1475416 19.5732552,49.1428072 C20.3351403,50.316226 20.0149592,50.9509489 19.9102049,51.1593684 C19.200401,52.5692062 16.2893769,53.4762347 14.4602215,53.5904021 C14.303386,53.6004581 14.1445778,53.6063736 13.9863614,53.6063736 C11.8681947,53.6063736 9.15069962,52.6672046 8.46259631,50.0218362 C8.18068698,48.9363596 8.46654184,47.7339553 9.24697091,46.7249846 Z M78.1642261,13.9327474 C77.4550139,15.3423881 74.5437921,16.2511912 72.7156235,16.3647669 C72.5583935,16.3748231 72.4011634,16.3803442 72.2429466,16.3803442 C70.1232023,16.3803442 67.4045233,15.4411753 66.7172089,12.7958068 C66.4347079,11.70895 66.7213519,10.5095033 67.5015838,9.49915233 C68.3851887,8.35826816 69.7045799,7.67641932 71.0338344,7.67641932 C71.2210505,7.67641932 71.4104363,7.69081347 71.6008095,7.71940457 L71.7170052,7.73695359 L71.8332016,7.72808047 C74.4118139,7.53484399 76.5315589,9.92170933 77.8288543,11.9183552 C78.588964,13.0901967 78.2705584,13.7245251 78.1642261,13.9327474 Z" id="Shape"></path>
        </g>
    </g>
</svg>