<?xml version="1.0" encoding="UTF-8"?>
<svg width="150px" height="150px" viewBox="0 0 150 150" version="1.1" xmlns="http://www.w3.org/2000/svg" xmlns:xlink="http://www.w3.org/1999/xlink">
    <!-- Generator: Sketch 53.2 (72643) - https://sketchapp.com -->
    <title>Artboard</title>
    <desc>Created with Sketch.</desc>
    <g id="Artboard" stroke="none" stroke-width="1" fill="none" fill-rule="evenodd">
        <g id="share" transform="translate(9.000000, 2.000000)" fill="#425A70" fill-rule="nonzero">
            <path d="M108.823981,109.465002 C103.698771,109.465002 99.0021827,110.921746 95.4621568,113.586318 C91.1789259,110.782197 86.91545,107.950884 82.6522734,105.119272 C69.7723499,96.5640734 56.4608108,87.7252956 42.7844038,79.8636571 C43.3468211,77.3218996 43.2282914,74.6313301 42.4294135,71.8400585 C42.1543409,70.8721826 41.7948608,69.9138689 41.3569595,68.9752773 C56.47428,60.6728802 70.4239637,50.2246613 83.9240727,40.111419 C87.5170778,37.4202518 91.1103822,34.7275906 94.7261355,32.0722818 C98.7492595,35.5657789 104.289623,37.5475489 110.13978,37.5475489 L110.44239,37.5460548 C117.692454,37.4602936 124.787472,34.17597 128.517265,29.1785151 C131.466139,25.2302149 132.261126,20.4724131 130.817219,15.4223659 C127.76987,4.77005342 117.324892,0 108.323822,0 C101.869942,0 96.1035938,2.3278028 92.4968201,6.38457442 C89.2441388,10.0451116 87.8807484,14.9382786 88.5527158,20.533671 C88.5631919,20.6254086 88.5754639,20.7171461 88.5907291,20.8076884 C84.7313315,23.6339219 80.9027637,26.5055759 77.0738966,29.3748394 C62.8656028,40.0265543 48.1810951,51.0350594 32.1951557,59.4399515 C28.5494708,57.4886611 24.2291246,56.4224737 19.9270367,56.4224737 C13.4770478,56.4224737 7.71279491,58.7487824 4.10991234,62.8025658 C0.858128983,66.4601147 -0.505261405,71.3529829 0.167304611,76.9474789 C1.50854552,88.1173466 12.0457124,93.9619544 21.7594574,93.9619544 L22.0581761,93.9604603 C26.6649689,93.9057764 31.3594617,92.5279203 35.0976357,90.1576851 C49.1347201,98.1499077 62.8081338,107.23312 76.0391566,116.021995 C80.3663871,118.897235 84.6951142,121.771279 89.0420996,124.614844 C88.8140198,126.321999 88.8113259,128.122983 89.0358139,129.98672 C90.3764562,141.154795 100.914222,147 110.627967,147 L110.924291,147 C118.175852,146.911848 125.269373,143.628421 129.000962,138.629771 C131.94804,134.681471 132.743027,129.922772 131.297623,124.876311 C128.251471,114.232664 117.815773,109.465002 108.823981,109.465002 Z M102.897798,123.850165 C104.23844,122.1203 106.241471,121.086983 108.255278,121.086983 C108.53963,121.086983 108.828471,121.109693 109.115516,121.152125 L109.291814,121.179617 L109.469908,121.164377 C113.381985,120.8548 116.599647,124.490535 118.56676,127.51638 C119.721825,129.291367 119.236931,130.253566 119.078892,130.569418 C118.00105,132.705677 113.584623,134.082039 110.81055,134.253561 C110.571994,134.270295 110.330445,134.277766 110.090093,134.277766 C106.877221,134.277766 102.751731,132.85419 101.709209,128.84523 C101.27909,127.19754 101.713698,125.379523 102.897798,123.850165 Z M14.0298869,70.8100281 C15.3705292,69.0807605 17.3735607,68.0474432 19.3876669,68.0474432 C19.6717191,68.0474432 19.9599617,68.0695558 20.2479049,68.1128846 L20.4242028,68.1394795 L20.6013987,68.1251362 C24.5128774,67.8254204 27.7296406,71.450398 29.6973527,74.4741511 C30.8533162,76.2524251 30.3675242,77.2143246 30.2085867,77.5301767 C29.1316429,79.6667351 24.7149166,81.0413042 21.9396464,81.2143206 C21.7016891,81.2295603 21.4607387,81.2385249 21.2206862,81.2385249 C18.0069161,81.2385249 13.8838201,79.8152483 12.8398013,75.8062878 C12.4120768,74.1612872 12.8457876,72.3390868 14.0298869,70.8100281 Z M118.593998,21.1145759 C117.517952,23.2508355 113.100926,24.6280939 110.327153,24.8002138 C110.088597,24.8154536 109.850041,24.8238206 109.609988,24.8238206 C106.393824,24.8238206 102.268932,23.400544 101.22611,19.3915835 C100.797488,17.7444912 101.232396,15.926773 102.416196,14.3956226 C103.756838,12.6666538 105.758673,11.6333365 107.775473,11.6333365 C108.059525,11.6333365 108.346869,11.6551503 108.635711,11.6984791 L108.812008,11.725074 L108.988306,11.7116271 C112.900683,11.4187842 116.116848,15.0359925 118.085158,18.0618373 C119.238428,19.8377208 118.75533,20.7990226 118.593998,21.1145759 Z" id="Shape"></path>
        </g>
    </g>
</svg>