<?xml version="1.0" encoding="UTF-8"?>
<svg width="100px" height="100px" viewBox="0 0 100 100" version="1.1" xmlns="http://www.w3.org/2000/svg" xmlns:xlink="http://www.w3.org/1999/xlink">
    <!-- Generator: Sketch 53.2 (72643) - https://sketchapp.com -->
    <title>Artboard</title>
    <desc>Created with Sketch.</desc>
    <g id="Artboard" stroke="none" stroke-width="1" fill="none" fill-rule="evenodd">
        <g id="upload" transform="translate(1.000000, 6.000000)" fill="#007489" fill-rule="nonzero">
            <path d="M97.3941927,4.78518519 C98.4846789,3.27871241 97.8078741,0.516710189 95.3521969,0.462051276 C71.1367742,-0.074581393 27.8606968,-0.552288097 3.69891431,1.51865479 C3.20111446,1.56091893 2.78519761,1.72245735 2.43348677,1.95003349 C1.68170741,2.34321192 1.10812008,3.07836413 1.05773054,4.16016357 C0.313672151,20.1758345 0.493286465,56.2866819 0.00117575573,72.3096676 C-0.00715477237,72.5821494 0.0296214614,72.8245585 0.0848874038,73.0535572 C0.127149595,74.05855 0.6899682,75.0253419 1.93995378,75.3856035 C11.1380759,78.0258929 23.3546938,78.9473732 36.2940357,79 C36.1965076,77.2574166 36.1871612,75.5136145 36.1861452,73.7665613 C24.4746418,73.7149506 13.5059777,72.9464744 5.32214819,70.8279848 C5.61452941,60.4574211 5.64968017,37.0357723 5.85448925,22.9091865 C34.490578,22.6299994 63.1234158,21.904194 91.762959,22.1187658 C91.6751832,36.5186461 91.9754887,60.2353312 92.5996689,70.8690297 C85.1141812,71.3829044 75.4125705,72.182672 64.9868127,72.8129766 C65.0229794,74.5638907 65.210721,76.2932662 65.4571828,78.018375 C76.465061,77.3476346 86.7485903,76.4974751 94.8241232,76.0083895 C95.625682,75.9598268 96.2325919,75.6204941 96.6566359,75.1415684 C97.4695735,74.7845586 98.0679494,74.0240067 97.9937875,72.8385793 C96.9947332,56.8456659 96.7255152,21.5782725 97.3941927,4.78518519 Z M91.8133484,16.8345291 C63.1870123,16.6187382 34.5659591,17.3437307 5.94287412,17.6239338 C6.01764569,13.6437897 6.11314199,9.9074771 6.23749036,6.61656355 C28.4698412,4.87276136 69.7988104,5.19116477 92.0785028,5.67496726 C91.954561,9.02338446 91.8680049,12.8090729 91.8133484,16.8345291 Z" id="Shape"></path>
            <path d="M12.4996272,10 C9.16679092,10 9.16679092,15 12.4996272,15 C15.8334576,14.9998077 15.8334576,10 12.4996272,10 Z" id="Path"></path>
            <path d="M22.4996272,9 C19.1667909,9 19.1667909,14 22.4996272,14 C25.8334576,14 25.8334576,9 22.4996272,9 Z" id="Path"></path>
            <path d="M31.4996272,9 C28.1667909,9 28.1667909,14 31.4996272,14 C34.8334576,14 34.8334576,9 31.4996272,9 Z" id="Path"></path>
            <path d="M75.3543461,60.366083 C76.0370868,59.6252318 76.2889641,58.5452154 75.5590468,57.4278091 C69.5731168,48.2572726 62.3944142,40.1044361 54.3541866,32.7194205 C52.7761072,31.2704087 50.7131034,32.2223187 50.0299574,33.7023866 C42.9433806,42.0581093 36.5589822,51.0022632 28.7846025,58.7485101 C26.8495621,60.6762352 28.8467619,63.4565725 30.9605865,63.2616547 C31.0324647,63.2667626 31.0978636,63.2833122 31.1723739,63.2833122 L39.7287068,63.2833122 C39.6031732,65.5585794 39.523601,68.2643416 39.4824989,71.0845204 C39.469743,71.9745224 39.4604292,72.8731058 39.4553674,73.7767973 C39.4446363,75.5518982 39.4486858,77.3294501 39.466706,79.0412129 C39.4837137,80.6504087 39.5108452,82.2005575 39.5511374,83.6240296 C39.5321049,83.657129 39.5181342,83.6924758 39.5017339,83.7257789 C38.6699722,85.3421258 39.3921956,87.7565327 41.7010024,87.6298567 C41.8453661,87.6225011 41.9903372,87.6204581 42.1349034,87.6120811 C42.3622812,87.6265878 42.5894566,87.6247485 42.8119752,87.5871543 C48.6541491,87.3133703 54.4750633,87.3795691 60.300432,87.9835284 C61.8436859,88.1433038 62.6663363,87.1172266 62.7936922,85.9250406 C62.9643775,85.6034467 63.0763453,85.2279134 63.1073238,84.796397 C63.1144104,84.6926041 63.1216995,84.5814562 63.128786,84.4768462 C63.2563444,82.591619 63.3529243,80.4514049 63.4298643,78.1988164 C63.4875693,76.4786772 63.5349481,74.7003075 63.5738231,72.9282712 C63.5944753,71.998632 63.6129005,71.0743041 63.6303132,70.1601932 C63.6829563,67.3796515 63.7228437,64.7120967 63.7702225,62.4482712 C66.8875064,62.3798252 69.9997288,62.2167807 73.1099261,61.9544385 C74.2387161,61.8592271 74.9821994,61.1929514 75.3543461,60.366083 Z M61.0034204,57.1736395 C59.0056131,57.179769 58.1922766,59.0214768 58.5470104,60.5352569 C58.5470104,60.5362785 58.5470104,60.5373001 58.5470104,60.5383216 C58.4814089,63.438184 58.4330177,66.8858186 58.3651891,70.4227394 C58.3477763,71.3523792 58.3281364,72.2820184 58.3076866,73.2167663 C58.2675968,75.0035131 58.2181932,76.7694191 58.1564388,78.48629 C58.1307246,79.2406262 58.1011635,79.9794342 58.0689702,80.7045526 C58.043256,81.3050386 58.0175419,81.9120624 57.9867659,82.4859875 C54.9126089,82.2389688 51.8384518,82.1341543 48.7612576,82.1384454 C48.163353,82.1394669 47.5640311,82.146618 46.9651141,82.1560166 C46.2376264,82.1674581 45.5093288,82.1768567 44.7802212,82.1997398 C44.7751594,81.9547647 44.7719198,81.6914008 44.766858,81.4411132 C44.7508626,80.6363109 44.7370944,79.8143462 44.7277806,78.9709282 C44.7087481,77.2599832 44.7026738,75.4922379 44.713,73.7065126 C44.7217064,72.2799754 44.7407389,70.8552774 44.7700976,69.4485587 C44.8332694,66.3815658 44.9458447,63.4246992 45.123819,60.8909717 C45.1701854,60.2342989 45.0102313,59.7071626 44.724946,59.3034334 C44.3404486,58.5399031 43.6006099,57.9692475 42.4918644,57.9692475 L36.7825131,57.9692475 C42.3971067,51.7275863 47.4403197,44.991071 52.8340146,38.5455021 C58.7397653,44.1838169 64.1435838,50.2511962 68.8547401,56.9317289 C66.2408056,57.0802669 63.6250489,57.1652625 61.0034204,57.1736395 Z" id="Shape"></path>
        </g>
    </g>
</svg>