<?xml version="1.0" encoding="UTF-8"?>
<svg width="150px" height="150px" viewBox="0 0 150 150" version="1.1" xmlns="http://www.w3.org/2000/svg" xmlns:xlink="http://www.w3.org/1999/xlink">
    <!-- Generator: Sketch 53.2 (72643) - https://sketchapp.com -->
    <title>Artboard</title>
    <desc>Created with Sketch.</desc>
    <g id="Artboard" stroke="none" stroke-width="1" fill="none" fill-rule="evenodd">
        <g id="upload" transform="translate(2.000000, 10.000000)" fill="#425A70" fill-rule="nonzero">
            <path d="M145.097471,7.08691984 C146.722073,4.85581458 145.713772,0.76525433 142.055314,0.684303789 C105.979276,-0.110455987 41.5067524,-0.817945662 5.51062746,2.24914697 C4.76900727,2.31174069 4.14937604,2.55098114 3.62539867,2.88802429 C2.50540084,3.47032651 1.65087277,4.55909624 1.57580264,6.16125491 C0.467307491,29.8806663 0.734896163,83.3612884 0.00175163609,107.091533 C-0.0106591507,107.495082 0.0441299324,107.854093 0.126464908,108.193243 C0.189426948,109.68165 1.02791181,111.113481 2.89013523,111.647033 C16.5934601,115.557335 34.7937275,116.922059 54.0707064,117 C53.9254094,114.419212 53.9114851,111.836619 53.9099716,109.249211 C36.4622216,109.172775 20.1211505,108.034652 7.92891467,104.897142 C8.36450301,89.538206 8.41687048,54.8504476 8.72199421,33.9287952 C51.3839224,33.5153155 94.0410074,32.4403886 136.708082,32.7581722 C136.577314,54.0845772 137.024708,89.209288 137.954609,104.95793 C126.80276,105.718985 112.34934,106.903451 96.8170885,107.83694 C96.8709695,110.430066 97.1506662,112.991293 97.5178439,115.546201 C113.917336,114.552826 129.237696,113.293729 141.268592,112.569387 C142.462751,112.497465 143.366923,111.994909 143.998662,111.285614 C145.209773,110.756878 146.101231,109.630491 145.990745,107.874858 C144.502358,84.1891507 144.101278,31.9576947 145.097471,7.08691984 Z M136.783152,24.9321507 C94.1357532,24.6125616 51.4962249,25.6862847 8.85366963,26.1012691 C8.96506401,20.2066252 9.10733401,14.673099 9.2925877,9.79921437 C42.4142533,7.21662126 103.985983,7.68818074 137.178178,8.40469835 C136.99353,13.3637466 136.864579,18.9703991 136.783152,24.9321507 Z" id="Shape"></path>
            <path d="M18.9994036,14 C13.6668655,14 13.6668655,22 18.9994036,22 C24.3335321,21.9996923 24.3335321,14 18.9994036,14 Z" id="Path"></path>
            <path d="M32.9994036,13 C27.6668655,13 27.6668655,21 32.9994036,21 C38.3335321,21 38.3335321,13 32.9994036,13 Z" id="Path"></path>
            <path d="M46.9994036,13 C41.6668655,13 41.6668655,21 46.9994036,21 C52.3335321,21 52.3335321,13 46.9994036,13 Z" id="Path"></path>
            <path d="M112.031519,90.0425874 C113.05563,88.9445401 113.433446,87.3438015 112.33857,85.6876457 C103.359675,72.0956006 92.5916212,60.0119321 80.5312798,49.0662839 C78.1641607,46.9186415 75.069655,48.3295081 74.044936,50.5231801 C63.4150708,62.9075549 53.8384733,76.1640688 42.1769037,87.6451134 C39.2743431,90.5022773 42.2701428,94.6231344 45.4408798,94.3342384 C45.548697,94.341809 45.6467954,94.3663379 45.7585609,94.3663379 L58.5930602,94.3663379 C58.4047597,97.738609 58.2854015,101.748935 58.2237483,105.928843 C58.2046145,107.247953 58.1906438,108.579782 58.1830511,109.919182 C58.1669544,112.550135 58.1730286,115.184721 58.2000589,117.721798 C58.2255705,120.106856 58.2662677,122.404398 58.3267061,124.514187 C58.2981573,124.563245 58.2772013,124.615634 58.2526008,124.664994 C57.0049583,127.060651 58.0882934,130.639147 61.5515035,130.451395 C61.7680491,130.440493 61.9855057,130.437465 62.202355,130.425049 C62.5434218,130.44655 62.8841849,130.443824 63.2179627,130.388104 C71.9812236,129.982317 80.7125949,130.080433 89.4506479,130.975587 C91.7655288,131.212397 92.9995043,129.691604 93.1905382,127.924614 C93.4465661,127.447966 93.6145179,126.891372 93.6609856,126.251803 C93.6716155,126.097967 93.6825491,125.93323 93.6931789,125.778183 C93.8845165,122.984007 94.0293864,119.811904 94.1447964,116.473246 C94.2313538,113.923754 94.3024221,111.287956 94.3607345,108.661545 C94.3917129,107.283687 94.4193506,105.913701 94.4454697,104.558858 C94.5244344,100.437698 94.5842654,96.4840006 94.6553336,93.1286878 C99.3312595,93.0272411 103.999593,92.7855859 108.664889,92.3967572 C110.358074,92.2556403 111.473299,91.2681245 112.031519,90.0425874 Z M90.5051305,85.3109301 C87.5084196,85.3200149 86.2884148,88.049689 86.8205155,90.2933274 C86.8205155,90.2948415 86.8205155,90.2963556 86.8205155,90.2978697 C86.7221133,94.5958801 86.6495265,99.7057671 86.5477835,104.947989 C86.5216644,106.325848 86.4922045,107.703706 86.4615298,109.089136 C86.4013951,111.73735 86.3272897,114.354675 86.2346581,116.899323 C86.1960868,118.017357 86.1517451,119.112376 86.1034552,120.187105 C86.0648839,121.077111 86.0263127,121.976807 85.9801487,122.827446 C81.3689132,122.461329 76.7576776,122.305979 72.1418864,122.312339 C71.2450295,122.313853 70.3460466,122.324452 69.4476711,122.338382 C68.3564396,122.35534 67.2639931,122.36927 66.1703318,122.403186 C66.1627391,122.040098 66.1578797,121.649755 66.1502869,121.278793 C66.1262938,120.085961 66.1056415,118.867692 66.0916708,117.617626 C66.0631221,115.081761 66.0540107,112.46171 66.0695,109.81501 C66.0825595,107.700678 66.1111083,105.589072 66.1551463,103.504114 C66.249904,98.9583924 66.418767,94.5758936 66.6857284,90.8205475 C66.7552781,89.8472646 66.5153469,89.0659733 66.0874189,88.467589 C65.5106728,87.335928 64.4009148,86.4901348 62.7377965,86.4901348 L54.1737696,86.4901348 C62.59566,77.2391013 70.1604795,67.2546231 78.2510218,57.7013692 C87.1096478,66.0581573 95.2153756,75.0508802 102.28211,84.952384 C98.3612083,85.1725386 94.4375732,85.2985142 90.5051305,85.3109301 Z" id="Shape"></path>
        </g>
    </g>
</svg>